<?xml version="1.0" encoding="UTF-8" standalone="no"?>
<!DOCTYPE svg PUBLIC "-//W3C//DTD SVG 1.1//EN" "http://www.w3.org/Graphics/SVG/1.1/DTD/svg11.dtd">
<svg width="100%" height="100%" viewBox="0 0 512 512" version="1.1" xmlns="http://www.w3.org/2000/svg" xmlns:xlink="http://www.w3.org/1999/xlink" xml:space="preserve" xmlns:serif="http://www.serif.com/" style="fill-rule:evenodd;clip-rule:evenodd;stroke-linejoin:round;stroke-miterlimit:2;">
    <g transform="matrix(1,0,0,1,-3330,-164)">
        <g id="Mesa-de-trabajo2" serif:id="Mesa de trabajo2" transform="matrix(0.727273,0,0,0.748538,907.977438,40.558803)">
            <rect x="3330.281" y="164.91" width="704" height="684" style="fill:none;"/>
            <g id="Isotipo" transform="matrix(0.915126,0,0,0.877022,3365.44239,176.361301)">
                <g transform="matrix(1.019417,0,0,1.019417,-1.988232,-8.443476)">
                    <path d="M479.731,276.903C475.805,279.801 471.889,282.808 470.294,284.269C468.887,285.64 467.315,287.328 466.359,288.372C465.165,289.72 463.339,291.839 462.656,292.629C461.5,294.015 459.227,297.068 459.118,297.206C457.18,299.668 457.156,299.642 456.989,299.857C456.604,300.349 446.595,314.211 446.42,314.44C446.252,314.675 437.251,327.648 435.312,330.367L434.935,330.814C434.568,331.34 432.484,334.333 430.216,337.285C423.43,346.024 423.123,345.759 422.554,346.533C422.332,346.835 422.28,347.24 422.058,347.542C422.364,347.73 422.181,348.342 422.488,348.53C423.396,349.086 428.861,344.251 443.509,343.78C452.533,343.49 464.155,348.277 468.44,350.612C469.896,351.496 475.485,354.188 481.002,360.899C483.936,365.267 484.223,366.286 485.223,368.609C488.344,378.044 489.235,384.062 486.951,392.625L486.688,393.563C484.198,400.213 483.418,404.944 482.793,407.57C481.997,410.719 481.854,411.476 479.001,418.275C478.387,419.482 476.701,422.553 476.262,423.365C475.159,425.302 474.214,426.891 474.033,427.196C473.013,428.68 472.99,428.656 472.902,428.785C472.273,429.712 472.269,429.691 471.633,430.601C467.447,436.003 462.46,442.188 455.355,446.231C453.498,447.068 453.525,447.108 453.363,447.179C448.917,449.119 446.119,447.703 445.537,446.478C444.78,444.886 445.804,444.08 445.849,443.972C446.094,443.937 446.308,443.771 446.553,443.735C447.712,443.567 449.965,444.942 451.622,441.579C454.035,436.678 453.377,433.563 452.846,430.422C451.387,425.062 450.157,423.286 447.736,420.292C447.391,419.92 445.442,417.819 443.15,415.909C440.728,413.89 440.233,414.821 438.087,417.127C437.135,418.191 437.144,418.181 436.211,419.279C434.504,421.476 434.306,421.602 431.321,427.406C429.437,431.303 429.486,431.304 428.261,434.415C426.467,439.182 426.375,439.269 424.3,446.447C422.33,453.464 422.494,453.495 420.648,460.536C418.556,467.969 418.568,467.954 418.146,469.39C416.641,474.219 416.592,474.198 416.185,475.386C414.339,479.937 414.417,479.959 412.272,484.381C409.579,489.007 409.603,489.018 409.353,489.41C407.564,492.012 407.581,492.003 407.314,492.353C405.713,494.387 405.705,494.376 405.569,494.554C403.872,496.555 403.851,496.508 403.707,496.683C402.068,498.67 402.825,498.939 402.835,501.505C402.864,508.815 401.581,511.861 401.168,513.39C400.406,515.485 400.493,515.508 399.53,517.515C398.676,519.104 398.68,519.088 397.812,520.672C397.545,521.138 395.918,523.972 394.356,526.425L393.939,527.593C393.843,529.506 393.097,544.418 392.966,551.513C392.836,558.582 392.168,561.731 391.953,568.508C391.714,576.021 390.879,578.217 390.615,581.491C390.503,582.886 390.11,583.572 391.496,583.468C393.154,583.344 391.882,581.305 396.315,570.422L397.166,568.359C399.102,563.81 398.999,563.785 401.183,559.343C403.295,554.599 404.699,551.913 405.03,551.279C405.867,549.433 405.92,549.479 406.779,547.647C406.779,547.647 407.993,545.245 409.135,543.293C410.244,541.343 410.236,541.356 411.359,539.415C415.434,533.054 415.4,533.038 416.492,531.495C417.562,530.038 417.534,530.035 418.641,528.613C419.087,528.026 420.421,526.273 424.592,521.58C426.437,519.547 427.297,518.263 440.87,505.922C442.278,504.892 445.466,502.29 445.86,501.968C447.69,500.713 447.593,500.617 449.415,499.375C450.044,498.947 456.466,494.598 460.423,492.358C465.924,489.244 468.756,487.907 469.501,487.502L469.441,487.558C471.3,486.488 473.794,485.218 479.371,482.258C482.523,480.51 482.543,480.572 485.627,478.705C486.563,478.085 486.566,478.129 487.508,477.512C495.678,472.226 495.847,472.503 503.591,466.62C505.432,465.176 513.51,458.956 518.508,453.508C520.273,451.726 520.242,451.721 521.923,449.878C522.872,448.808 522.861,448.82 523.788,447.743C524.69,446.641 524.68,446.654 525.545,445.533C531.205,437.833 532.653,434.963 533.517,433.509C533.785,433.049 536.059,429.15 536.906,427.775C537.571,426.687 537.558,426.688 537.624,426.6C538.763,425.089 539.67,424.72 540.16,426.537C540.24,426.835 539.565,429.427 539.149,431.415C538.524,434.416 537.849,436.891 537.27,439.443C536.892,440.898 536.733,442.052 532.239,456.423C532.239,456.423 529.979,462.68 529.355,464.439C529.054,465.167 526.5,471.34 525.486,473.493C524.794,474.901 523.661,477.329 523.17,478.342C518.859,486.749 518.43,486.952 517.194,489.329L516.086,491.234C515.877,491.545 515.312,492.237 514.102,494.24C513.062,495.708 513.082,495.692 512.069,497.18L511.218,498.284C510.172,499.623 508.259,502.106 506.287,504.6C506.433,504.533 506.546,504.521 506.616,504.578C505.526,506.335 505.701,506.408 505.221,508.409L504.023,511.24C500.615,517.065 499.893,517.965 498.698,519.634C496.78,522.188 495.233,524.298 495.233,524.298C493.67,526.27 493.736,526.3 492.207,528.284C491.893,528.684 489.852,531.277 488.149,533.181C486.957,534.441 483.925,537.412 483.66,537.669C480.3,540.864 480.292,540.825 476.821,543.878C471.696,548.309 470.134,549.234 462.396,554.343C461.991,554.62 459.89,556.121 451.629,560.724C432.861,571.411 428.708,571.91 415.112,583.007C413.375,584.346 413.35,584.294 411.742,585.768L408.221,589.228C406.239,591.266 406.217,591.222 404.324,593.356C403.164,594.752 403.189,594.741 402.081,596.166C400.496,598.104 396.287,603.613 393.79,607.676C393.79,607.676 391.71,611.199 390.099,614.288C388.577,617.1 388.703,617.149 387.556,619.528C386.657,621.262 383.351,628.17 382.273,630.385C381.344,632.117 379.81,635.14 379.6,635.556C379.425,635.9 377.327,638.676 378.541,639.407C379.35,639.894 394.239,637.213 395.595,636.968C398.586,636.372 398.571,636.381 401.564,635.81L404.42,635.182C412.999,632.928 413.07,633.276 421.559,630.681C424.568,629.655 424.566,629.723 427.603,628.826L432.425,627.268C452.461,620.38 470.493,610.536 473.666,608.804C477.539,606.839 477.417,606.649 485.237,602.064C486.96,600.935 499.346,592.824 506.244,587.177C507.037,586.551 507,586.539 507.803,585.911C510.138,584.164 510.114,584.171 512.347,582.311C517.454,578.016 520.723,575.075 521.438,574.431C524.245,572.056 526.781,569.647 527.233,569.217C528,568.488 527.969,568.475 528.735,567.748C530.278,566.27 530.268,566.281 531.777,564.78C532.784,563.767 532.771,563.78 533.774,562.763C534.208,562.319 537.389,559.061 539.157,557.176L539.626,556.62C540.356,555.853 540.377,555.893 541.11,555.129C542.004,554.18 542.002,554.189 542.076,554.104C542.567,553.541 542.497,553.512 542.983,552.954C545.37,550.331 545.38,550.368 547.664,547.637C548.514,546.65 548.507,546.655 548.582,546.571C548.814,546.309 548.835,546.358 549.054,546.111C550.879,543.865 550.858,543.873 552.705,541.662C554.273,539.694 554.201,539.663 555.773,537.709C556.406,536.912 556.423,536.951 557.054,536.166C558.678,533.915 558.65,533.906 558.795,533.714C559.558,532.67 559.552,532.676 559.619,532.587C559.804,532.339 559.828,532.38 560.01,532.137L560.895,530.79L561.74,529.671C562.19,529.009 563.977,526.548 564.173,526.277C566.617,522.557 566.646,522.597 568.995,518.811C570.009,517.303 569.98,517.313 570.921,515.769C571.457,514.958 571.473,514.998 572.01,514.192L572.849,512.713C572.966,512.528 573.584,511.551 574.285,510.376L575.791,507.662C576.455,506.471 576.49,506.512 577.16,505.307C578.459,502.998 579.548,501.009 579.753,500.634C580.178,499.846 582.982,494.638 584.793,490.641L585.389,489.447C586.343,487.419 586.336,487.438 587.305,485.408L587.68,484.582C589.676,480.072 589.74,480.122 591.619,475.549L592.144,474.353C592.307,473.979 594.103,469.715 595.067,467.332L595.684,465.566C596.937,461.973 596.937,461.991 598.154,458.382C598.283,457.998 599.226,455.201 599.786,453.591C601.726,447.571 601.624,447.555 603.406,441.474C604.486,437.824 605.601,433.285 605.777,432.569C606.703,429.047 606.662,429.051 607.569,425.516C608.294,422.555 608.252,422.566 608.832,419.563C614.655,389.406 614.538,388.501 614.788,378.517C614.841,376.399 615.514,376.167 615.682,375.82C615.913,375.933 617.197,375.285 617.396,377.517C617.425,377.846 617.412,378.177 617.441,378.505L617.685,383.487C617.971,391.155 618.003,391.151 618.021,391.516C618.284,399.166 618.259,399.149 618.293,402.501C618.287,414.005 618.003,413.984 618.069,425.492C617.865,429.011 617.916,429 617.691,432.515C617.135,437.632 616.179,441.816 615.996,442.614C615.278,446.568 615.161,446.529 614.364,450.471C611.593,461.55 611.809,461.589 608.337,472.444C607.377,475.328 607.378,475.323 607.34,475.445C607.094,476.162 605.641,480.402 604.218,484.392L603.751,485.594L602.946,487.661C602.258,489.601 602.256,489.585 601.486,491.494C600.464,493.991 600.467,493.978 599.431,496.472L598.894,497.667C595.35,505.718 595.356,505.719 595.082,506.305C594.793,506.907 592.351,511.776 591.412,513.454L590.776,514.647C590.667,514.871 590.005,516.235 589.336,517.41C587.968,519.756 587.328,520.996 587.164,521.313C586.494,522.518 586.459,522.477 585.796,523.672L584.242,526.344C583.12,528.243 581.2,531.341 580.932,531.774L580.076,533.225C579.277,534.379 579.291,534.359 578.524,535.516C576.691,538.304 576.718,538.298 576.559,538.539L576.122,539.258C575.398,540.308 575.404,540.302 575.34,540.392C575.168,540.633 575.143,540.593 574.976,540.828L574.101,542.221C573.285,543.356 573.296,543.341 572.481,544.486C570.781,546.844 570.784,546.826 569.093,549.199C565.477,553.864 565.526,553.877 565.21,554.279C561.649,558.728 561.557,558.631 558.034,563.106L557.114,564.175C554.568,567.087 554.561,567.059 551.953,569.9C549.59,572.717 549.613,572.72 546.664,575.669C543.156,579.163 543.266,579.243 539.766,582.769C537.739,584.747 537.737,584.718 535.691,586.699C535.411,586.976 533.345,589.018 532.158,590.117C531.194,591.007 531.202,591.004 531.116,591.078C530.543,591.571 530.518,591.505 529.949,591.993C527.31,594.369 527.33,594.364 524.687,596.719L524.223,597.166C523.228,598.018 517.199,603.183 511.361,607.301C506.666,610.761 506.653,610.714 501.845,613.985L500.719,614.816C500.262,615.133 500.29,615.163 498.411,616.359C497.265,617.137 496.029,617.868 495.818,617.992C490.786,621.431 486.937,623.548 482.751,625.931C480.032,627.563 479.995,627.473 477.264,629.059C476.772,629.319 476.788,629.306 467.706,633.898C461.119,637.133 461.056,637.278 450.517,641.541C445.093,643.751 445.152,643.874 439.608,645.79C417.801,653.965 399.674,656.973 392.47,658.299C386.459,659.259 386.474,659.198 380.442,660.065C353.216,662.839 341.702,661.853 327.528,661.142C325.624,660.964 325.636,660.963 325.472,660.949C324.471,660.87 324.481,660.91 323.472,660.83C315.173,660.115 310.348,659.456 306.43,658.974C305.665,658.865 274.813,655.19 239.345,640.873C236.421,639.681 236.432,639.697 233.519,638.454L232.323,637.911C228.877,636.462 212.922,628.92 206.279,624.879C201.205,621.984 201.203,622.014 196.249,618.903C195.545,618.478 190.842,615.641 187.552,613.421C183.534,610.716 177.889,607.011 170.167,600.922C166.219,597.827 166.3,597.756 162.406,594.612C161.566,593.899 161.56,593.932 160.723,593.225C160.176,592.764 160.188,592.776 159.648,592.322C158.582,591.407 157.7,590.616 157.532,590.465C157.422,590.366 157.327,590.282 157.243,590.208C157.123,590.187 157.02,590.155 157.04,590.033C156.667,589.716 156.501,589.604 155.906,589.066C154.664,587.934 153.064,586.402 152.819,586.168C152.654,586.012 151.787,585.192 150.761,584.215L150.293,583.726L149.266,582.757C148.988,582.498 148.979,582.534 148.703,582.277C148.287,581.895 146.647,580.393 143.639,577.363C142.888,576.592 142.929,576.581 142.177,575.803L141.682,575.332L139.739,573.275C138.774,572.247 137.976,571.381 137.824,571.215C136.862,570.167 136.875,570.181 135.9,569.125L135.437,568.559C135.098,568.175 135.085,568.21 131.127,563.823C129.869,562.402 129.854,562.424 129.746,562.299L128.833,561.226C128.428,560.75 128.464,560.731 123.842,555.218C123.659,554.998 123.676,554.989 121.625,552.405C120.937,551.538 120.986,551.526 120.304,550.654L119.895,550.19C118.247,547.986 118.276,547.971 118.128,547.783L117.729,547.327L116.878,546.216C115.999,544.99 116.026,544.991 115.143,543.755C114.55,542.966 114.532,542.996 113.937,542.198C112.357,539.894 112.374,539.886 112.23,539.691C111.188,538.216 111.257,538.195 110.177,536.72L109.826,536.28C106.864,531.77 106.859,531.794 103.919,527.25L103.085,525.745C101.749,523.647 101.809,523.635 100.563,521.464L99.859,520.29C98.413,517.816 98.433,517.827 98.299,517.619C97.776,516.706 97.772,516.719 96.899,515.269C94.901,511.674 94.916,511.68 94.742,511.368C94.001,509.946 94.013,509.956 93.317,508.595L92.308,506.596L91.315,504.588L90.732,503.39C89.916,501.536 89.86,501.583 89.028,499.732C87.442,496.718 86.559,494.556 86.142,493.663L85.604,492.455L84.362,489.559L83.824,488.365C82.747,485.883 82.78,485.886 81.733,483.405C81.219,482.14 79.324,477.475 75.841,467.384C73.564,460.37 72.476,456.539 72.206,455.59C71.938,454.712 71.108,452.573 68.865,443.417C68.013,439.484 67.962,439.512 67.157,435.572C59.707,396.532 61.051,374.134 63.353,350.486C64.524,338.449 67.647,322.918 68.255,320.442C69.987,313.482 70.002,313.512 71.799,306.581C73.185,301.793 74.034,299.359 74.036,299.352C74.872,296.448 74.873,296.467 75.828,293.612C77.632,288.225 78.823,285.082 79.102,284.346L79.726,282.581C80.667,280.048 80.717,280.085 81.66,277.564C82.633,275.036 82.66,275.066 83.637,272.556C83.804,272.16 84.86,269.656 85.762,267.614C87.92,262.523 91.143,256.02 91.787,254.644C94.615,249.153 94.602,249.158 94.849,248.682C95.493,247.476 95.523,247.516 96.167,246.321L97.229,244.352C98.505,241.992 98.505,242.007 99.792,239.666C100.33,238.724 101.077,237.504 101.191,237.318L102.745,234.647L103.884,232.733C104.847,231.238 104.843,231.26 105.365,230.414C106.065,229.349 106.061,229.356 106.121,229.263C106.357,228.896 106.316,228.886 106.546,228.529L110.917,221.775C113.574,218.027 113.533,218.004 113.766,217.68C114.942,215.925 116.782,213.549 117.911,211.798L118.766,210.694L119.158,210.246C119.966,209.225 119.963,209.233 120.031,209.143C120.276,208.823 120.224,208.802 120.472,208.479C120.895,207.937 124.857,202.868 125.8,201.745C126.716,200.655 126.704,200.669 127.603,199.588L128.974,197.912C130.378,196.322 130.359,196.339 131.76,194.726C132.691,193.666 133.478,192.779 133.627,192.611C134.332,191.824 134.351,191.874 135.058,191.098L135.969,189.958C139.103,186.659 139.126,186.69 139.395,186.401L139.862,185.841C142.43,183.117 148.405,177.112 150.792,174.814L151.346,174.332C152.119,173.621 152.078,173.606 152.858,172.897C153.569,172.249 157.902,168.305 161.849,164.918C171.539,157.017 171.444,156.914 181.495,149.493C186.991,145.478 195.95,139.886 197.23,139.086C199.802,137.344 199.827,137.4 205.745,133.935C223.302,124.152 233.712,119.584 240.599,116.742C260.14,108.767 263.42,108.146 269.43,106.276C312.495,93.194 344.796,93.211 370.47,94.831C402.843,96.873 427.304,105.676 428.355,105.991C459.51,116.011 473.788,125.956 481.298,129.807C493.71,137.339 499.724,141.484 505.238,145.894C508.837,148.773 514.793,156.095 514.38,156.267C513.815,156.503 508.004,151.034 506.882,150.105C504.333,148.147 503.2,147.283 500.611,145.357C498.197,143.609 497.46,143.041 497.191,142.833C496.966,142.65 496.787,142.505 494.227,140.738C488.454,136.754 487.109,135.955 486.467,135.574C480.722,131.992 477.484,130.504 476.669,130.129C462.656,123.045 457.431,121.332 447.586,118.22C443.535,116.932 443.528,117.006 437.54,115.341C437.05,115.222 433.417,114.336 431.41,113.883C417.232,110.682 402.43,109.062 399.476,108.704C388.255,107.34 376.66,106.892 375.481,106.814C369.976,106.459 369.977,106.691 364.475,106.358C360.542,105.86 360.56,105.758 356.614,105.913C355.682,106.404 355.105,106.585 355.898,107.285C356.338,107.673 362.022,107.623 363.973,107.526L364.176,108.476C364.049,108.747 364.488,109.747 362.574,109.862C361.529,109.925 361.541,109.628 349.486,110.239C337.123,110.865 326.834,112.593 324.57,112.9C313.724,114.467 301.594,117.446 299.616,117.932C288.472,120.82 286.272,121.275 275.426,125.308C271.563,126.702 270.186,127.461 258.672,131.903C257.32,132.494 255.501,133.342 251.737,134.988C244.305,138.715 244.048,138.194 231.408,145.342C229.004,146.701 226.944,147.756 225.563,148.606C224.38,149.307 224.391,149.3 223.225,150.047C220.709,151.557 220.711,151.522 218.262,153.117C217.532,153.562 217.516,153.509 216.782,153.956C216.688,154.013 216.697,154.012 215.632,154.713C215.389,154.867 213.762,155.896 212.628,156.687L210.804,157.923C209.813,158.657 209.7,158.804 203.747,162.856C195.317,169.239 195.386,169.32 193.19,171.11C191.795,172.262 191.768,172.204 190.406,173.39C190.214,173.558 189.994,173.69 189.802,173.857C184.185,178.736 184.157,178.685 178.659,183.682C176.596,185.497 172.169,189.727 170.976,190.962C167.159,195.161 167.086,195.076 163.226,199.245C162.264,200.278 161.446,201.139 161.29,201.303L160.797,201.776C159.171,203.504 157.275,205.593 156.971,205.927C155.166,208.164 155.193,208.16 153.331,210.36C152.161,211.744 152.182,211.736 151.06,213.141L150.154,214.224C148.102,216.714 148.195,216.755 146.203,219.271L145.34,220.381L144.947,220.824C144.478,221.495 144.536,221.505 144.062,222.182C143.998,222.273 144,222.265 143.226,223.301C142.155,224.759 142.168,224.746 141.107,226.212C139.831,227.881 139.84,227.866 138.662,229.605L137.881,230.746C136.606,232.685 136.632,232.688 135.415,234.442C134.205,236.308 134.213,236.295 133.002,238.174C131.981,239.674 132.01,239.669 131.066,241.223C130.057,242.746 130.082,242.736 129.136,244.281C128.545,245.235 128.552,245.22 128.018,246.224C127.099,247.784 127.095,247.762 126.214,249.337C126.071,249.587 125.106,251.276 124.413,252.452C123.392,254.332 121.576,257.936 121.334,258.415L120.701,259.606C119.494,262.009 119.481,261.984 118.308,264.405L116.728,267.61L116.351,268.429C116.169,268.82 116.205,268.824 114.173,273.36C113.264,275.414 113.273,275.399 112.389,277.454C110.644,281.849 110.25,282.852 110.065,283.322L109.196,285.375C108.105,288.137 108.136,288.132 106.185,293.388C105.135,296.394 105.142,296.374 104.134,299.374C103.264,301.928 103.28,301.911 102.463,304.488C100.265,310.929 100.324,310.932 98.499,317.5C97.358,322.041 96.698,324.135 95.14,332.424C94.732,334.577 92.089,346.982 91.025,360.455C90.616,364.48 90.73,364.474 90.571,368.502C88.362,397.072 93.98,425.293 94.202,426.561L94.906,430.409C96.848,438.925 96.698,438.941 98.821,447.423L99.157,448.6C100.833,454.865 101.941,457.772 102.22,458.597L103.225,461.597C104.715,466.113 104.722,466.086 106.368,470.55L106.979,472.319C108.502,476.031 108.362,476.075 110.077,479.687C111.149,482.168 111.131,482.16 112.206,484.632C113.137,486.682 113.128,486.663 114.069,488.698C114.249,489.09 115.126,491.004 116.418,493.542C117.067,494.727 117.995,496.446 118.131,496.698L118.928,498.273L119.191,498.663C120.64,501.705 120.668,501.67 122.267,504.624C122.481,505.009 122.46,504.999 122.683,505.4C122.77,505.555 122.764,505.543 123.778,507.338L124.073,507.751C125.395,510.071 125.38,510.061 126.77,512.338C127.466,513.525 127.502,513.484 128.198,514.678L128.62,515.428C129.424,516.759 129.423,516.737 130.095,517.757C131.049,519.295 131.028,519.289 132.037,520.805C133.004,522.33 132.982,522.326 134.005,523.814L135.192,525.697C136.185,527.22 136.163,527.206 137.195,528.701C138.664,530.742 138.616,530.761 140.152,532.765C141.029,533.983 141.002,533.981 141.885,535.21C142.499,536.006 142.512,535.968 143.133,536.778C144.903,539.176 144.874,539.179 145.768,540.303C146.638,541.413 146.625,541.396 147.493,542.505C149.061,544.468 149.037,544.459 150.675,546.349C151.345,547.152 151.367,547.112 152.031,547.903C153.177,549.301 153.152,549.299 154.357,550.63C155.085,551.441 155.049,551.452 155.773,552.262L156.234,552.732C156.72,553.256 156.7,553.246 157.2,553.774C157.946,554.562 157.91,554.569 158.653,555.361L159.134,555.833C159.864,556.632 159.822,556.649 160.553,557.452C161.28,558.222 161.303,558.176 162.041,558.942C164.025,560.994 163.958,561.041 166.078,562.947C166.161,563.022 166.152,563.02 167.081,563.926C170.113,566.99 170.105,566.991 170.565,567.433C170.727,567.591 171.578,568.421 172.596,569.398C173.392,570.127 173.404,570.09 174.208,570.826C178.366,574.657 178.325,574.686 182.701,578.251C183.398,578.836 183.389,578.819 186.086,580.992C186.816,581.621 189.841,584.227 195.562,588.419C197.803,590.137 199.253,591.158 199.58,591.388C203.606,594.371 203.738,594.163 207.794,597.089C211.473,599.474 211.471,599.454 213.802,601.007C214.778,601.56 214.765,601.553 215.705,602.16C218.271,603.588 218.191,603.709 225.323,607.799C229.383,610.14 229.387,610.111 237.62,614.245L239.263,614.997C243.097,617.032 243.19,616.843 250.651,620.16C253.812,621.489 262.415,625.131 272.565,628.298C286.703,632.862 294.034,634.273 301.429,635.858L303.548,636.241C309.584,637.504 320.102,638.918 321.547,639.113C330.758,639.874 330.733,640.033 331.533,640.099C334.139,640.313 343.459,640.623 344.496,640.658C350.444,640.748 352.466,640.794 356.51,640.669C357.328,640.624 360.465,640.728 360.864,639.712C361.105,639.097 361.359,638.451 359.042,631.657C357.791,627.985 357.424,626.99 357.275,626.587C355.679,622.537 354.806,620.652 353.234,617.65C350.739,613.326 350.754,613.33 347.833,609.278C346.366,607.202 346.381,607.212 344.764,605.273C343.834,604.196 340.852,601.112 340.852,601.112C337.309,597.838 337.34,597.822 334.452,595.561L333.33,594.737C332.763,594.318 328.609,591.448 326.269,589.892C317.1,584.583 316.287,584.401 312.217,581.992C307.085,579.41 300.409,575.276 299.404,574.654L298.682,574.213C291.816,569.79 287.126,565.676 286.187,564.852C285.641,564.357 282.23,561.261 279.643,558.374L276.876,555.184C276.292,554.489 276.308,554.479 269.936,546.202C268.876,544.657 265.495,539.834 263.405,536.564C260.746,532.404 254.892,522.791 253.979,521.242C251.338,515.919 249.509,512.944 247.021,506.702C239.722,489.641 236.719,475.087 236.063,469.543L235.577,466.485C235.542,466.243 234.086,460.71 237.468,460.29C238.01,460.222 238.463,460.343 238.546,460.365C238.954,460.474 238.849,460.658 239.262,460.768C239.469,461.144 239.852,461.195 240.546,463.486C241.786,467.582 241.824,467.561 243.529,471.487C243.529,471.487 245.675,475.173 247.445,477.543C249.557,480.006 249.572,479.978 252.101,481.99C253.206,482.886 255.915,485.067 257.659,486.248C257.659,486.248 267.096,494.636 268.528,495.333C268.83,495.48 270.397,496.226 271.428,496.657C272.1,496.938 290.279,504.504 290.454,504.548C291.198,504.734 295.492,506.462 296.7,507.111C295.492,506.462 301.341,506.27 306.376,508.738C312.802,512.12 317.59,514.914 325.164,521.871C325.328,522.025 326.193,522.835 327.195,523.816C328.156,524.776 334.011,530.628 338.354,536.612C344.618,544.864 346.928,549.258 347.165,549.682C347.278,549.905 347.958,551.251 348.629,552.432C349.266,553.627 351.063,557.197 351.272,557.612C352.154,559.443 352.168,559.414 352.971,561.278C353.756,562.887 353.729,562.884 354.432,564.528C354.749,565.328 356.427,569.561 358.199,574.606L358.794,576.406C359.312,577.914 359.306,577.898 359.792,579.406C361.258,584.428 361.147,584.44 362.34,589.533C363.127,593.979 363.269,593.935 363.981,598.402L364.239,599.553C365.068,605.53 365.22,605.491 365.81,611.478C366.052,615.498 366.125,615.475 366.439,619.505C367.475,630.587 366.74,630.604 366.995,634.477C367.097,636.034 367.106,636.017 367.189,637.564C367.255,638.786 367.472,638.721 367.631,639.371C368.797,637.995 369.164,631.599 369.226,631.413C369.409,630.853 369.371,629.356 371.167,623.407C374.01,613.991 374.035,614.018 376.711,604.556C377.794,600.066 377.878,600.104 378.883,595.591C380.699,587.488 381.043,583.421 381.544,577.501C381.69,571.067 381.534,571.089 381.418,568.506C380.656,559.978 381.142,559.945 379.971,551.459C379.667,547.98 379.507,548.013 379.1,544.55C378.264,539.947 378.277,539.952 378.201,539.553C378,538.485 378.013,538.497 377.824,537.435C377.479,535.71 377.497,535.713 376.579,530.485C376.253,528.628 375.885,528.469 375.802,528.29C374.755,527.258 374.77,527.266 373.637,526.341C372.664,525.478 372.668,525.485 372.586,525.409C372.317,525.159 372.371,525.138 372.114,524.899C370.732,523.511 370.719,523.534 370.602,523.411C369.158,521.684 369.145,521.698 368.093,519.716L367.847,519.33C366.861,516.772 366.995,516.749 366.502,514.5C366.216,511.997 366.245,512.008 366.353,509.488C366.698,506.724 366.798,506.212 365.801,505.212C365.604,505.014 365.603,505.025 363.14,502.939C360.397,500.666 360.377,500.707 357.964,498.091C357.715,497.783 356.282,496.013 354.902,494.209C354.771,494.006 354.023,492.845 353.186,491.725C351.959,490.012 351.995,490.013 350.823,488.286L350.38,487.58C346.867,482.078 343.546,477.984 342.901,477.188C342.576,476.714 341.371,474.954 338.396,471.593L337.915,471.122C335.755,468.742 335.813,468.717 333.577,466.423C332.829,465.663 332.871,465.642 332.119,464.876C330.628,463.358 330.645,463.368 329.161,461.828C328.602,461.25 328.61,461.27 326.652,459.341C326.24,458.953 322.666,455.586 321.541,454.459L319.97,453.007C318.392,451.568 318.399,451.588 316.778,450.169C311.76,445.674 311.809,445.654 306.689,441.27C299.9,435.58 295.226,431.899 280.428,422.611C280.025,422.35 274.222,418.809 268.409,415.665C268.409,415.665 264.082,413.364 260.508,411.484C260.253,411.355 249.549,406.409 248.724,406.027C246.263,404.887 246.155,404.88 243.546,405.624C237.447,407.758 223.517,413.48 199.602,405.205C191.522,402.41 191.71,401.377 187.5,400.465L186.522,400.579C176.242,404.013 176.042,404.186 172.654,405.812C168.647,407.816 166.881,408.894 166.778,408.955L166.358,409.28C165.297,410.032 163.156,411.125 158.78,415.753C155.239,419.731 154.523,422.187 153.938,423.644C153.693,424.599 153.097,425.75 152.686,429.522C152.661,429.756 152.482,431.395 152.713,432.462C153.513,436.15 154.44,436.755 154.762,437.262C155.178,437.578 155.043,437.761 157.654,439.184C157.8,439.263 159.832,440.047 160.356,441.558C161.194,443.978 159.137,446.067 159.126,446.084C157.423,447.112 157.513,447.285 155.593,447.815C155.28,447.901 153.603,448.364 151.546,448.091C145.864,447.338 142.102,444.149 141.426,443.575C139.399,441.588 139.379,441.622 137.612,439.414C136.295,437.601 136.374,437.575 135.318,435.596C134.182,433.127 134.22,433.136 133.252,430.592C131.997,426.79 131.429,425.057 131.187,419.5C131.218,416.034 130.96,413.179 132.874,404.595C133.728,401.547 133.722,401.57 134.691,398.565L135.148,397.369C136.786,393.096 137.975,391.166 138.755,389.636C139.425,388.458 140.031,387.472 140.146,387.286C141.914,384.459 141.964,384.511 143.849,381.767C143.93,381.664 146.267,378.786 146.93,377.906C147.652,377.13 147.673,377.171 148.394,376.401C149.13,375.599 149.091,375.586 149.822,374.786L150.768,373.753C153.669,370.745 156.684,368.307 159.37,365.38C159.458,365.412 159.528,365.446 159.585,365.482C159.505,365.349 159.467,365.25 159.467,365.25C159.467,365.25 162.477,362.501 163.569,361.589C166.28,359.325 170.627,356.559 171.262,356.155C178.415,351.439 193.531,344.885 212.502,344.594C226.745,344.375 226.984,345.722 227.865,344.864C228.99,343.768 226.629,343.026 223.864,340.143C218.906,334.973 216.728,331.053 214.983,328.213C211.274,321.398 211.357,321.379 209.24,316.616C209.078,316.216 208.057,313.695 207.17,311.636C203.748,303.011 200.801,299.642 199.704,298.317C198.481,297.048 198.509,297.038 197.194,295.878C192.022,291.667 189.262,292.459 188.553,292.662C186.44,293.268 186.716,293.707 185.32,295.392C184.475,297.389 184.168,297.344 184.272,299.507C184.422,302.592 186.296,303.676 186.333,303.716C188.016,304.821 188.01,304.807 188.15,304.91C188.813,305.395 189.686,307.754 186.499,307.509C183.798,307.301 183.847,306.997 181.772,305.266L180.962,304.211C176.195,294.412 178.916,288.691 180.779,283.625C182.606,280.144 182.585,280.144 182.855,279.725C187.771,272.082 194.682,270.886 198.566,269.63C199.199,269.142 199.335,269.304 201.232,267.254C201.959,266.468 201.953,266.482 202.726,265.759C206.971,262.156 209.304,261.551 211.572,260.728C212.428,260.493 217.008,259.233 222.518,258.913C227.729,258.61 236.465,259.983 241.528,261.405C255.793,265.411 261.258,268.867 265.324,270.819C267.755,272.167 270.597,273.796 274.462,276.554L276.685,278.237C277.127,278.603 280.239,281.187 282.151,282.878C287.815,287.888 288.375,290.393 289.5,290.329C289.518,290.328 290.3,289.493 290.302,289.471C290.373,288.794 288.003,285.779 285.902,271.429C283.563,255.897 285.019,249.199 285.149,246.487C285.634,236.422 288.99,226.092 289.749,223.58C290.731,220.569 290.741,220.591 291.823,217.627C292.642,215.593 294.58,210.753 297.887,204.721C298.561,203.528 299.163,202.558 299.278,202.372L300.84,199.712C301.882,198.164 301.881,198.178 302.375,197.415C303.422,195.932 303.388,195.929 304.491,194.493C306.536,191.886 306.51,191.873 306.688,191.647C309.234,188.62 311.144,186.949 311.568,186.579C317.638,181.347 321.427,179.745 321.577,179.667C322.835,179.098 331.943,174.973 338.52,176.403C348.849,178.648 350.385,184.272 353.611,181.644C356.409,179.365 356.432,179.417 359.535,177.561C369.079,171.957 375.167,174.529 375.471,174.601C375.88,174.726 378.929,175.658 380.395,176.662C382.615,178.181 383.338,179.198 383.533,179.473C386.789,184.049 387.697,187.451 387.777,193.508C387.374,201.37 386.319,203.659 385.309,206.425C382.693,213.594 380.423,213.487 382.097,216.705C382.619,217.71 382.627,217.69 383.171,218.699C383.899,220.085 383.888,220.08 383.957,220.196C386.177,223.901 386.618,223.628 391.911,234.296C392.692,235.921 392.686,235.903 393.452,237.52C396.169,244.006 396.687,245.899 397.895,250.394C401.34,264.002 400.083,274.386 399.364,282.473C399.352,282.617 398.929,287.996 398.388,290.233C403.085,282.707 408.053,276.123 408.983,274.889C409.127,274.717 409.881,273.81 410.78,272.737L412.609,270.59C417.586,264.459 422.62,260.407 425.726,257.785C425.949,257.603 426.243,257.362 428.579,255.605C434.941,250.838 443.053,246.931 446.494,246.445C450.306,245.906 450.201,245.555 453.694,243.938C459.916,241.059 468.192,238.37 472.539,237.774C476.397,237.245 485.54,235.002 496.508,240.485C498.876,241.825 505.5,243.839 505.5,243.839C505.731,244.236 505.395,244.174 505.697,244.495C506.689,244.225 508.062,244.545 508.405,244.572C512.338,244.873 519.6,246.077 524.442,249.576C525.868,250.703 526.942,251.546 529.071,253.876C530.864,256.104 531.806,257.483 532.028,257.808C536.176,265.149 536.533,270.876 536.56,274.502L536.423,276.49C535.795,279.619 535.909,279.631 534.893,282.648C533.611,285.908 533.414,286.309 531.742,288.685C528.495,292.68 527.466,293.085 524.724,294.87C523.73,295.433 523.738,295.403 522.693,295.913C515.88,299.246 508.722,297.964 508.172,295.603C506.909,290.181 518.021,292.44 514.259,280.598C513.443,279.008 513.501,278.984 512.454,277.537C511.711,276.731 511.746,276.721 510.899,276.023C509.44,274.854 509.459,274.857 509.33,274.761C509.082,274.623 508.849,274.461 508.602,274.323C502.701,271.039 494.132,271.012 487.563,273.682C481.732,276.053 480.332,276.603 479.731,276.903Z" style="fill:rgb(11,44,102);"/>
                </g>
                <g transform="matrix(1.019417,0,0,1.019417,-1.988232,-8.443476)">
                    <path d="M171.221,363.468C173.788,361.485 182.111,355.993 188.281,353.876C195.832,351.286 216.522,347.926 216.522,347.926C224.345,347.674 239.639,349.026 250.412,352.756C265.8,358.111 271.476,362.355 275.456,364.569C278.391,366.2 285.931,371.78 287.227,372.845C291.345,376.327 295.943,379.651 295.792,380.004C295.659,380.315 294.566,380.126 294.517,380.117C294.145,380.053 293.835,379.79 293.489,379.638C288.43,377.416 287.324,376.644 275.424,373.815C264.667,371.257 253.274,369.934 252.551,369.881C251.805,369.827 250.467,370.158 250.159,370.267C249.096,370.641 249.32,371.319 250.413,371.598C251.294,371.823 253.381,372.206 253.582,372.276C254.398,372.558 260.002,372.905 267.383,374.881C292.058,381.485 293.968,383.019 297.507,384.487C299.113,385.152 302.749,388.006 302.642,388.245C302.534,388.485 301.568,388.285 301.457,388.276C301.162,388.253 299.876,387.793 299.495,387.707C298.839,387.559 296.547,386.669 294.519,386.335C284.04,384.615 276.021,385.897 274.435,386.151C268.631,387.259 267.931,387.363 261.389,390.265C261.389,390.265 255.809,393.151 252.328,395.225C245.749,399.312 244.183,400.026 243.435,400.367C227.389,407.684 213.68,404.39 205.429,401.707C197.505,399.146 196.079,398.919 192.501,398.516C190.892,398.335 156.46,401.832 156.257,402.136C155.157,403.78 147.735,407.374 146.201,405.758C145.535,405.056 147.803,390.692 150.554,386.038C154.364,379.594 167.38,367.174 167.058,366.647C168.31,365.841 170.98,363.638 171.221,363.468Z" style="fill:rgb(251,251,252);"/>
                </g>
                <g transform="matrix(1.019417,0,0,1.019417,-1.988232,-8.443476)">
                    <path d="M365.855,394.928C365.858,394.721 362.209,396.801 360.079,399.192C357.214,402.407 355.628,406.183 355.43,405.719C355.323,405.467 350.319,403.974 348.796,404.025C348.593,404.031 348.167,402.906 347.817,402.303C347.473,401.128 346.662,398.727 345.932,396.36C343.928,389.334 342.449,386.991 340.839,382.381C340.506,381.427 339.602,378.837 336.061,370.702C335.805,370.113 323.392,344.489 322.788,343.351C319.875,337.921 313.891,327.645 310.585,321.454C310.357,321.047 310.368,321.049 307.777,316.349C307.356,315.561 304.103,309.477 302.398,306.559C299.488,301.489 298.965,301.81 296.387,296.545C296.07,295.764 291.761,286.216 290.155,276.56C288.98,271.079 288.228,263.525 288.144,261.514C287.928,253.003 288.251,250.378 289.109,243.45C289.994,237.312 293.732,223.915 295.445,219.477C296.272,217.384 298.501,212.016 300.304,208.407C302.867,203.343 305.712,199.308 307.238,197.298C309.042,195.066 309.071,195.119 311.079,193.069C314.923,189.227 318.378,185.587 327.355,182.098C336.381,178.957 338.962,180.352 346.525,183.459C348.125,184.117 348.239,185.069 346.61,185.647C345.954,185.879 342.564,187.081 339.305,190.377C339.16,190.523 337.813,191.886 337.872,192.514C337.902,192.828 338.28,193.029 338.571,193.153C339.435,193.521 340.361,191.981 343.655,189.783C343.992,189.558 347.557,187.179 348.252,187.668C349.039,188.222 347.907,189.531 347.8,189.655C344.279,193.728 342.099,199.826 341.788,200.612C341.232,202.228 338.079,211.39 336.956,221.422C337.027,221.74 337.68,224.231 338.316,224.263C338.326,224.264 339.269,220.634 339.306,220.429C339.437,219.693 339.482,219.525 340.148,216.408C340.844,213.151 340.863,213.167 341.329,211.438C342.469,207.595 343.372,205.69 343.455,205.48C345.314,201.396 345.173,201.343 347.305,197.393C348.247,195.818 348.181,195.803 349.16,194.273C352.308,189.717 356.505,185.505 356.505,185.505C363.611,179.148 370.733,177.304 375.723,180.042C376.749,180.604 376.739,180.596 377.684,181.261C380.126,183.466 380.048,183.547 381.569,186.471C382.357,188.728 383.384,190.831 382.842,197.536C382.8,198.059 383.049,198.11 380.285,208.395C379.949,209.647 379.289,209.514 378.577,208.42C378.05,207.609 377.356,201.254 377.288,200.626C377.288,200.626 376.157,199.839 375.991,199.939C375.946,199.966 375.309,201.973 375.494,204.5C375.831,209.087 378.541,214.638 379.662,217.423C381.187,220.457 385.455,228.263 386.968,231.282C387.995,233.278 390.013,237.966 391.15,240.636C393.189,245.964 395.36,253.398 395.845,255.414C396.968,260.605 397.308,262.265 397.782,269.471C397.935,278.499 398.276,279.93 398.167,283.732C398.085,286.603 397.129,292.286 397.129,292.286C395.426,295.146 394.297,297.395 394.297,297.395C393.27,299.396 390.757,304.607 390.757,304.607C390.075,306.325 388.197,311.067 387.634,312.549C387.49,312.927 385.245,319.42 385.245,319.42C384.402,322.333 383.924,324.167 383.817,324.582C382.685,329.024 380.181,341.121 379.882,342.563C379.316,345.464 377.358,356.254 377.002,359.429C376.945,359.831 375.272,371.462 375.026,373.436C374.7,375.914 373.113,385.113 372.837,387.539C372.513,390.395 372.882,390.864 370.371,392.244C368.058,393.517 368.123,393.595 365.855,394.928Z" style="fill:rgb(253,252,252);"/>
                </g>
                <g transform="matrix(1.019417,0,0,1.019417,-1.988232,-8.443476)">
                    <path d="M408.462,370.476C416.199,365.383 424.594,362.902 421.377,361.845C421.158,361.773 416.172,363.651 414.445,364.343C410.233,366.033 404.677,369.339 402.389,371.341C398.446,374.79 398.538,375.391 397.632,375.006C397.379,374.898 396.837,374.688 396.939,374.432C397.51,373.006 398.522,371.85 400.59,369.567C404.531,365.221 404.503,365.209 404.851,364.837C407.055,362.521 407.08,362.568 409.466,360.462C409.957,360.045 413.688,356.493 420.723,352.931C429.237,348.621 434.365,347.975 434.57,347.926C445.593,346.311 448.385,346.843 456.427,348.761C460.799,350.138 468.037,351.987 475.188,358.805C480.75,364.478 482.232,369.692 483.325,373.547C485.536,383.18 484.521,385.905 482.94,394.661C482.352,397.917 481.703,397.704 481.505,397.54C480.964,397.09 481.179,396.978 480.634,393.459C480.297,391.283 478.53,386.366 478.183,385.65C476.314,381.797 475.175,379.752 474.459,379.732C474.366,379.729 473.919,379.716 473.615,380.523C473.514,380.793 474.244,382.376 474.316,382.53C474.741,383.451 477.52,389.473 478.482,394.503C479.816,401.483 479.935,401.547 478.667,408.541C478.114,410.541 478.112,410.528 477.498,412.499C476.759,414.623 476.746,414.601 475.943,416.684C475.91,416.762 474.855,419.652 472.779,422.682C467.465,430.44 467.727,430.608 467.225,431.253C466.359,432.367 465.99,432.884 465.144,431.748C464.716,431.174 465.056,431.117 465.802,428.556C467.213,423.712 467.099,415.605 466.063,408.707L464.376,408.404C464.166,412.437 464.238,412.425 464.254,416.473C463.81,425.76 463.366,426.921 461.706,432.572C460.371,436.111 460.4,436.097 460.264,436.394C458.984,439.186 455.401,443.009 454.525,442.417C453.776,441.911 455.446,439.447 455.759,436.536C456.429,430.31 453.564,424.827 453.442,424.526C452.111,421.919 449.323,418.166 448.137,416.837C443.892,412.618 443.512,413.052 439.209,408.872C433.538,404.018 433.153,403.597 432.559,403.846C432.267,403.968 432.21,404.423 431.918,404.545C432.095,404.864 432.162,405.235 432.339,405.553C432.894,406.553 437.846,410.714 438.201,411.506C438.72,412.666 437.937,412.525 434.737,415.729C430.957,419.994 428.355,425.907 426.298,430.403L425.734,431.61C423.586,436.546 423.728,436.583 421.788,441.607C419.993,446.23 419.065,449.21 417.857,452.621C416.331,457.123 416.354,457.116 414.911,461.639C414.135,464.047 412.162,469.376 412.162,469.376C411.021,472.027 411.068,472.025 409.851,474.66C409.441,475.531 407.366,479.934 404.034,485.189C403.066,486.717 397.227,494.238 396.55,494.638C396.432,494.708 394.768,495.691 394.84,494.49C394.866,494.048 397.246,489.973 398.323,487.439C402.647,477.269 402.886,477.388 403.189,476.477C403.23,476.352 403.686,474.977 402.52,474.971C402.141,474.969 401.691,475.478 401.321,476.017C400.152,477.719 395.743,487.856 395.369,488.044C394.749,488.355 394.674,488.267 394.228,487.738C393.605,487 394.122,486.855 394.09,480.506C394.065,475.501 393.956,459.476 393.981,458.518C394.492,448.953 394.674,448.972 396.53,439.501C396.797,438.143 398.004,433.842 398.123,433.51C399.594,429.402 397.848,429.566 397.581,429.716C396.818,430.142 394.799,437.868 394.18,440.329C393.839,441.534 391.295,454.554 390.67,457.534C390.103,460.513 389.556,462.724 388.401,472.49C388.175,474.467 387.029,483.5 386.678,489.514C386.166,496.874 386.239,496.868 386.188,498.462C386.181,498.67 386.087,501.563 384.523,500.462C383.81,499.96 384.284,499.419 382.038,492.66C380.602,488.341 377.86,478.047 376.459,469.521C376.16,467.695 376.533,465.89 376.293,465.633C376.227,465.562 374.812,465.59 374.745,465.664C374.646,465.774 374.482,470.548 374.56,471.503C374.624,472.304 374.653,472.295 375.665,481.488C376.917,495.493 378.435,496.709 378.513,497.5C378.665,499.036 377.848,499.301 376.71,498.258C376.501,498.066 368.906,488.209 368.906,488.209C367.933,486.713 367.946,486.724 366.952,485.234C363.005,478.42 362.324,476.121 362.121,475.652C361.09,473.152 361.104,473.164 360.115,470.658C357.858,464.638 357.013,460.675 356.242,457.569C355.519,454.499 354.479,448.503 354.479,448.503C354.432,448.187 353.386,444.208 353.759,433.512C353.811,432.019 354.404,424.812 355.866,419.61C356.897,415.939 357.01,415.995 358.327,412.428C360.093,408.404 361.381,405.214 366.156,400.185C373.294,392.665 382.958,390.948 385.461,390.336C385.964,390.253 386.591,390.124 388.538,389.823C397.314,389.145 403.329,390.455 406.57,391.206C412.763,392.732 412.622,393.114 418.496,395.614C418.822,395.753 419.116,396.072 419.471,396.045C419.641,396.032 420.053,395.019 420.11,394.678C420.136,394.524 418.807,393.53 418.593,393.419C417.573,392.894 414.587,391.318 413.374,390.786C409.069,389.229 404.51,387.375 396.472,386.776C394.861,386.656 393.155,386.943 392.358,386.664C392.198,386.608 391.537,385.975 392.156,385.347C393.508,383.977 404.723,377.25 411.557,374.638C419.114,371.748 423.417,370.755 431.45,370.144C431.981,370.095 437.79,369.555 438.051,369.23C438.172,369.079 435.615,367.839 435.422,367.791C434.357,367.529 420.129,367.857 412.578,370.8C412.333,370.895 410.691,371.562 410.527,371.629C409.549,372.026 408.011,372.18 407.803,372.029C407.428,371.755 407.482,371.121 408.462,370.476Z" style="fill:rgb(252,252,252);"/>
                </g>
                <g transform="matrix(1.019417,0,0,1.019417,-1.988232,-8.443476)">
                    <path d="M479.371,482.258C482.523,480.51 482.543,480.572 485.627,478.705C486.563,478.085 486.566,478.129 487.508,477.512C495.678,472.226 495.847,472.503 503.591,466.62C505.432,465.176 513.51,458.956 518.508,453.508C520.273,451.726 520.242,451.721 521.923,449.878C522.872,448.808 522.861,448.82 523.788,447.743C524.69,446.641 524.68,446.654 525.545,445.533C531.205,437.833 532.653,434.963 533.517,433.509C533.785,433.049 536.059,429.15 536.906,427.775C537.571,426.687 537.558,426.688 537.624,426.6C538.763,425.089 539.67,424.72 540.16,426.537C540.24,426.835 539.565,429.427 539.149,431.415C538.524,434.416 537.849,436.891 537.27,439.443C536.892,440.898 536.733,442.052 532.239,456.423C532.239,456.423 529.979,462.68 529.355,464.439C529.054,465.167 526.5,471.34 525.486,473.493C524.794,474.901 523.661,477.329 523.17,478.342C518.859,486.749 518.43,486.952 517.194,489.329L516.086,491.234C515.877,491.545 515.312,492.237 514.102,494.24C513.062,495.708 513.082,495.692 512.069,497.18L511.218,498.284C509.235,500.823 504.131,507.477 501.424,510.515C501.171,511.031 499.583,514.059 498.973,514.918C498.828,515.122 496.872,518.497 494.577,520.582C490.921,523.902 486.616,526.63 484.667,527.79C480.632,530.097 480.829,530.445 477.566,531.71C473.926,532.571 474.009,532.831 469.232,536.03C459.749,541.756 458.826,544.189 457.485,544.427C457.207,544.477 456.216,543.774 456.217,543.457C456.222,542.365 462.073,538.207 462.471,537.493C462.821,536.864 462.585,535.757 461.49,535.859C459.961,536.003 459.077,537.104 453.577,537.964C452.024,538.206 452.051,538.27 450.522,538.577C448.471,539.529 448.448,539.453 446.545,540.692C446.394,540.79 444.152,542.249 444.303,540.537C444.332,540.209 444.675,539.962 444.704,539.634C444.741,539.601 453.5,530.963 453.719,530.711C459.061,525.048 458.867,524.893 464.122,519.139C465.074,518.11 474.029,508.9 474.478,508.474C478.414,504.896 484.392,499.878 484.439,499.49C484.468,499.25 484.552,497.4 481.422,499.326C480.727,499.753 475.843,502.978 475.843,502.978C474.297,504.061 462.188,512.545 456.595,516.62C454.195,518.377 451.513,520.482 449.308,522.22C445.632,525.343 445.606,525.293 443.347,527.36C441.78,528.795 439.43,530.919 438.639,531.658C432.937,536.95 433.086,537.075 427.419,542.403C417.066,552.38 416.601,553.775 414.54,556.565C413.296,558.249 412.925,556.751 412.675,556.486C414.392,551.902 414.896,552.141 416.76,547.601C417.371,546.114 417.363,546.128 417.937,544.642C419.987,539.936 419.907,539.913 422.272,535.354C424.275,531.736 426.524,527.512 426.524,527.512C431.062,520.776 436.235,515.484 436.341,515.371C442.215,509.212 442.484,509.515 448.589,503.578C449.345,502.842 460.934,493.269 466.065,489.716C469.383,487.417 470.277,487.085 479.371,482.258Z" style="fill:rgb(40,97,161);"/>
                </g>
                <g transform="matrix(1.019417,0,0,1.019417,-1.988232,-8.443476)">
                    <path d="M337.709,391.071C337.489,391.095 332.318,395.324 332.796,396.33C331.076,396.191 328.823,394.572 328.573,394.373C327.867,393.809 324.188,390.47 323.81,390.126C320.346,387.055 316.098,383.728 308.765,378.145C306.206,376.196 306.15,376.299 303.546,374.433C293.515,367.788 291.107,366.372 284.485,362.527C281.96,361.076 281.903,361.218 279.365,359.76C269.928,354.341 251.246,346.51 239.499,346.481C236.173,346.473 235.666,346.212 232.218,343.932C231.205,343.295 228.934,341.769 225.2,337.769C223.312,335.66 220.176,331.71 219.033,329.792C217.912,328.044 214.011,320.748 213.053,318.705C207.767,306.627 207.844,306.604 207.382,305.556L205.252,301.654C204.186,299.92 204.178,299.927 204.09,299.774C203.301,298.646 202.592,297.71 202.458,297.534C200.727,295.445 198.827,293.814 198.485,293.519C187.576,285.302 184.741,291.819 183.463,292.417C183.199,292.541 182.023,292.513 181.991,292.314C181.914,291.843 181.839,291.385 183.858,286.653C190.211,271.764 201.035,272.411 210.327,272.06C210.357,271.873 210.666,271.816 210.696,271.629C210.859,270.617 210.742,270.519 209.798,270.086C209.196,269.81 209.18,269.739 205.21,269.914C204.194,269.556 204.358,268.634 204.449,268.454C215.677,262.49 221.236,262.572 222.496,262.448C232.921,261.422 245.709,265.421 247.649,266.028C255.99,268.705 260.253,270.973 262.644,272.22C263.229,272.497 266.455,274.025 269.621,276.323C270.912,277.26 274.199,278.81 282.181,286.818C282.537,287.181 282.528,287.18 284.606,289.405C292.621,298.194 299.882,311.361 301.814,314.297C303.617,317.036 308.34,325.303 308.892,326.269C309.478,327.227 312.541,332.68 314.842,337.323C316.53,340.611 322.966,352.595 323.026,352.73C323.115,352.93 328.077,361.541 332.641,372.238C337.671,384.028 338.393,388.588 338.442,389.496C338.469,389.989 337.839,391.057 337.709,391.071Z" style="fill:rgb(253,253,253);"/>
                </g>
                <g transform="matrix(1.019417,0,0,1.019417,-1.988232,-8.443476)">
                    <path d="M249.025,491.73C249.025,491.73 244.373,482.377 243.322,478.512C242.827,476.692 242.822,476.639 242.807,476.471C242.719,475.479 243.5,473.796 243.5,473.796L244.143,472.683C245.641,475.219 245.675,475.173 247.445,477.543C249.557,480.006 249.572,479.978 252.101,481.99C253.206,482.886 255.915,485.067 257.659,486.248C257.659,486.248 267.096,494.636 268.528,495.333C268.83,495.48 270.397,496.226 271.428,496.657C272.1,496.938 290.279,504.504 290.454,504.548C291.198,504.734 295.492,506.462 296.7,507.111C296.746,507.136 305.009,511.553 305.782,512.094C307.315,513.13 309.728,514.67 316.626,520.32C317.214,520.857 321.073,524.387 323.559,527.461C328.633,533.738 328.853,533.558 331.817,538.36C334.485,543.053 334.413,543.076 337.011,547.8C337.275,548.414 337.517,548.979 340.066,555.578C340.901,557.74 340.597,558.549 340.603,558.608C340.021,558.642 339.018,558.411 338.903,558.215C338.628,557.747 338.499,557.205 338.253,556.72C335.209,550.719 335.226,550.727 334.933,550.223C332.209,545.545 332.408,545.453 331.004,542.811C330.905,542.625 329.67,540.303 328.665,541.597C328.263,542.116 329.1,544.352 329.185,544.578C334.11,557.725 334.885,557.396 335.241,558.561C335.281,558.693 335.722,560.133 334.528,560.121C333.597,560.112 332.864,558.553 332.685,558.321C331.649,556.857 331.687,556.858 330.571,555.444C325.075,549.174 318.563,543.834 316.206,541.816C315.597,541.306 315.584,541.326 308.3,535.803C307.909,535.552 299.143,529.823 298.593,529.896C298.402,529.922 297.912,530.383 297.783,530.475C298.232,531.188 299.8,533.121 300.312,533.632C304.113,537.455 313.926,549.592 314.523,550.486C317.009,554.204 320.643,558.122 321.222,558.746C322.405,560.096 323.703,562.01 323.693,562.547C323.692,562.599 323.684,563.065 323.403,563.135C323.074,563.216 320.857,561.531 320.676,561.335C320.2,560.824 313.571,553.699 313.439,556.457C313.379,557.695 313.661,557.627 314.56,558.471C315.539,559.39 315.852,561.115 315.47,561.226C314.796,561.42 315.011,560.607 307.39,557.836C304.384,556.743 302.996,556.253 302.613,556.118C298.806,554.675 298.837,554.662 298.49,554.526C295.866,553.215 295.895,553.187 293.296,551.841C291.741,550.886 291.739,550.928 290.271,549.847C290.054,549.686 287.691,547.98 287.454,547.98C286.575,547.984 287.038,549.83 287.581,550.452C289.102,552.195 291.871,554.682 296.583,558.439C299.707,560.932 299.672,560.965 299.949,561.173C300.521,561.601 301.529,562.209 301.695,563.711C301.893,565.511 296.173,560.701 293.407,558.716C288.27,555.029 280.558,547.948 276.193,543.88C274.084,541.942 270.063,537.905 268.199,535.706C263.827,530.668 263.624,530.024 262.266,527.637C260.495,523.676 259.569,521.041 259.273,519.504C259.17,518.969 259.975,518.244 260.492,518.415C261.028,518.591 262.284,520.447 262.487,520.565C262.571,520.613 262.838,520.768 263.688,520.681C263.839,520.666 264.042,520.556 264.049,520.404C264.064,520.083 261.884,517.22 260.65,513.449C259.741,510.673 256.39,504.945 255.972,504.231C255.902,504.111 251.957,497.289 249.025,491.73Z" style="fill:rgb(43,100,163);"/>
                </g>
                <g transform="matrix(1.019417,0,0,1.019417,-1.988232,-8.443476)">
                    <path d="M381.418,568.506C381.803,568.13 382.297,567.876 382.682,567.5C383.853,566.355 383.496,566.164 383.557,564.523C383.704,560.536 383.681,560.557 383.949,556.598C384.398,549.942 383.648,546.229 383.709,544.544C383.768,542.925 384.464,542.24 385.486,543.514C385.733,543.822 386.27,547.211 386.321,547.535C388.937,564.064 388.308,565.337 386.093,586.42C385.893,587.924 385.745,588.223 385.115,596.45C384.715,599.534 384.202,602.891 384.116,603.451C383.161,608.432 381.42,615.325 381.16,616.351C376.759,628.507 375.937,629.211 372.246,637.396C370.932,640.31 369.893,639.797 368.432,639.829C368.022,639.838 367.631,639.371 367.631,639.371C368.797,637.995 369.164,631.599 369.226,631.413C369.409,630.853 369.371,629.356 371.167,623.407C374.01,613.991 374.035,614.018 376.711,604.556C377.794,600.066 377.878,600.104 378.883,595.591C380.699,587.488 381.043,583.421 381.544,577.501C381.69,571.067 381.534,571.089 381.418,568.506Z" style="fill:rgb(37,91,154);"/>
                </g>
                <g transform="matrix(1.019417,0,0,1.019417,-1.988232,-8.443476)">
                    <path d="M479.731,276.903C475.805,279.801 471.889,282.808 470.294,284.269C468.887,285.64 467.315,287.328 466.359,288.372C465.165,289.72 463.339,291.839 462.656,292.629C461.5,294.015 459.227,297.068 459.118,297.206C457.18,299.668 457.156,299.642 456.989,299.857C456.604,300.349 452.586,305.463 450.825,307.365C449.614,308.674 447.024,311.328 442.663,315.576C442.636,315.602 439.92,317.747 439.74,317.862C438.792,318.471 436.372,320.024 428.924,326.88C421.724,333.507 421.236,335.503 420.502,335.515C420.237,335.519 420.13,335.032 419.865,335.036C419.873,334.803 419.394,334.598 419.917,333.568C420.043,333.321 420.041,333.343 421.591,330.53C422.439,327.998 422.548,328.042 423.077,325.418C423.117,325.221 423.497,323.333 422.439,322.987C421.408,322.651 417.803,325.136 417.438,325.387C416.269,326.193 416.101,326.87 415.083,325.883C414.602,325.415 414.646,325.263 415.791,322.575L416.806,319.638C419.026,313.694 419.765,312.123 420.087,311.355C420.343,311.702 426.065,303.745 429.838,297.321C433.497,291.09 435.216,286.395 435.05,286.149L436.094,284.445C436.092,284.079 435.495,283.891 435.493,283.525C433.311,284.736 433.346,284.787 431.624,286.614C431.234,287.026 431.205,286.986 426.701,291.712C426.047,292.415 426.099,292.451 418.944,300.871C410.982,310.674 408.924,314.051 408.175,315.28C407.409,316.538 407.588,316.624 406.704,317.819C406.291,318.378 406.257,318.407 405.558,318.385C404.755,318.359 405.087,317.999 405.104,317.745C405.13,317.35 405.072,316.951 405.098,316.556C405.354,314.029 405.364,314.043 405.456,311.5C405.771,305.431 406.142,305.49 406.88,299.442L406.724,297.444C406.391,295.507 406.616,295.498 407.427,293.474C407.823,292.484 407.961,291.738 407.978,291.684L408.287,290.419C408.67,289.356 408.649,289.37 409.127,288.354C410.284,285.681 411.904,281.557 415.129,276.284C419.941,268.642 423.706,264.802 431.337,258.324C440.446,250.888 445.11,249.431 445.339,249.245C445.51,249.107 454.005,247.434 457.894,244.932C462.166,242.183 475.335,238.833 479.251,238.537C483.295,238.231 489.983,239.035 493.117,239.912C494.758,240.372 498.361,241.525 501.063,242.138C502.549,242.476 506.465,244.096 506.768,244.418C500.545,246.115 483.73,252.771 483.709,253.337C483.705,253.427 483.685,253.942 484.487,254.153C484.508,254.159 487.236,253.377 487.475,253.309C493.919,251.464 503.426,244.94 516.605,250.236C517.812,250.854 523.621,252.869 528.218,261.668C528.526,262.257 531.117,268.326 531.176,268.514C531.648,270.015 530.776,270.442 529.514,269.483C529.473,269.452 528.033,267.359 527.906,267.173C526.99,266.129 526.908,265.307 522.319,262.879C520.019,261.993 514.072,259.036 499.314,264.998C499.196,264.929 499.054,265.041 498.91,265.163L498.444,265.356L497.599,265.74C496.966,266.052 494.648,267.196 489.791,269.869C487.796,270.899 487.856,271.002 485.767,271.815C485.607,271.892 475.855,276.823 477.432,278.41C478.365,277.783 478.343,277.775 479.288,277.161C479.432,277.067 479.542,276.998 479.731,276.903Z" style="fill:rgb(42,98,163);"/>
                </g>
                <g transform="matrix(1.019417,0,0,1.019417,-1.988232,-8.443476)">
                    <path d="M215.489,348.371C215.103,348.521 214.833,348.899 214.447,349.049C213.681,349.345 208.584,349.169 193.643,353.919C181.62,358.566 180.18,359.719 177.391,361.322C174.699,363.11 174.677,363.041 172.11,365.024C171.869,365.193 169.058,367.092 169.058,367.092C169.058,367.092 170.037,367.586 170.583,368.479C170.626,368.549 170.932,368.82 170.537,369.512C170.247,370.022 168.321,371.291 168.321,371.291C167.091,372.122 167.087,372.089 165.912,372.968L164.861,373.912C164.61,374.139 164.657,374.159 164.404,374.393L163.367,375.354C163.085,375.629 161.64,377.045 159.956,378.899C156.504,382.965 155.024,385.025 154.625,385.58C153.331,387.438 153.377,387.453 152.238,389.401C151.151,391.416 151.159,391.404 150.161,393.458C150.148,393.823 149.815,394.127 149.802,394.492C149.8,394.536 150.637,395.509 151.283,395.19C151.424,395.12 152.005,394.264 152.062,394.179C153.554,391.978 152.901,391.512 158.773,384.774C161.924,381.158 162.539,381.815 162.803,382.097C163.379,382.712 163.162,382.825 162.697,383.527C162.006,384.569 161.815,384.399 161.137,385.472C159.827,387.549 161.335,387.279 161.476,387.248C161.931,387.147 163.478,385.867 163.641,385.732C167.662,382.405 179.562,378.934 181.515,378.427C183.232,377.981 183.985,377.581 184.516,377.459C186.132,377.086 186.049,378.111 186.038,378.247C186.028,378.374 182.397,380.055 181.554,380.547C177.229,383.073 177.645,383.672 173.374,386.286C172.217,386.946 164.739,391.215 159.569,395.576C158.749,396.268 154.659,399.483 154.76,400.493C154.887,401.77 155.481,401.436 156.59,400.803C156.908,400.621 156.812,400.487 160.361,398.211C161.782,397.3 163.785,396.634 164.454,396.366C170.148,394.496 173.338,393.026 181.549,394.151C183.974,394.484 183.967,394.17 194.501,393.7C196.889,393.593 199.719,392.909 200.193,393.706C200.852,394.816 198.752,395.536 198.563,395.601C198.055,395.774 194.814,396.706 194.696,396.78C194.506,396.9 186.522,400.579 186.522,400.579C176.242,404.013 176.042,404.186 172.654,405.812C168.647,407.816 166.881,408.894 166.778,408.955L166.358,409.28C165.297,410.032 163.156,411.125 158.78,415.753C155.239,419.731 154.523,422.187 153.938,423.644C153.693,424.599 153.097,425.75 152.686,429.522C152.661,429.756 152.482,431.395 152.713,432.462C153.513,436.15 154.44,436.755 154.762,437.262C155.178,437.578 155.043,437.761 157.654,439.184C157.8,439.263 159.832,440.047 160.356,441.558C161.194,443.978 159.137,446.067 159.126,446.084C157.423,447.112 157.513,447.285 155.593,447.815C155.28,447.901 153.603,448.364 151.546,448.091C145.864,447.338 142.102,444.149 141.426,443.575C139.399,441.588 139.379,441.622 137.612,439.414C136.295,437.601 136.374,437.575 135.318,435.596C134.182,433.127 134.22,433.136 133.252,430.592C131.997,426.79 131.429,425.057 131.187,419.5C131.218,416.034 130.96,413.179 132.874,404.595C133.728,401.547 133.722,401.57 134.691,398.565L135.148,397.369C136.786,393.096 137.975,391.166 138.755,389.636C139.425,388.458 140.031,387.472 140.146,387.286C141.914,384.459 141.964,384.511 143.849,381.767C143.93,381.664 146.267,378.786 146.93,377.906C147.652,377.13 147.673,377.171 148.394,376.401C149.13,375.599 149.091,375.586 149.822,374.786L150.768,373.753C153.669,370.745 156.684,368.307 159.37,365.38C159.953,365.589 159.721,365.917 160.306,366.126C160.376,366.151 160.784,366.297 161.227,366.044C161.411,365.94 164.185,363.565 164.48,363.469C165.398,363.168 165.123,362.719 167.47,361.457C168.014,361.165 169.194,360.342 169.34,360.24C170.286,359.581 170.33,359.693 171.315,359.124C171.808,358.838 174.718,357.155 177.671,355.904C193.039,349.391 203.481,348.206 210.529,347.845C213.536,347.782 213.519,347.824 216.522,347.926L215.489,348.371Z" style="fill:rgb(207,143,18);"/>
                </g>
                <g transform="matrix(1.019417,0,0,1.019417,-1.988232,-8.443476)">
                    <path d="M333.496,450.11C332.911,450.025 321.549,441.68 321.493,441.675C321.318,441.659 320.989,442.467 320.969,442.67C320.837,443.984 325.514,448.679 325.775,450.48C325.803,450.674 325.886,453.652 323.336,450.704C319.086,445.793 318.394,446.066 316.495,445.523C313.199,444.579 302.841,434.152 302.32,433.661C293.536,425.377 292.976,426.066 284.232,418.778C280.071,415.414 277.837,415.774 279.282,414.26C279.902,413.61 280.102,414.454 285.456,414.002C291.36,413.503 292.027,414.629 293.449,414.358C293.619,414.326 295.315,413.938 292.993,412.249C289.935,410.024 290.01,409.912 286.609,408.286C285.959,408.003 285.001,407.625 284.527,407.455C282.91,406.871 283.534,405.7 283.638,405.643C283.823,405.541 284.176,405.231 285.497,405.449C285.978,405.528 285.972,405.541 291.47,406.613C291.894,406.696 294.118,406.866 302.517,411.463C302.952,411.701 308.486,415.065 308.582,415.054C308.929,415.017 309.094,414.562 309.255,414.252C309.456,413.862 309.361,413.328 309.647,412.996C309.868,412.74 310.392,412.845 310.456,412.857C310.62,412.89 315.65,416.273 317.331,417.672C320.604,420.383 320.594,420.361 323.729,423.232C326.037,425.455 326.014,425.45 328.194,427.808C332.262,432.349 335.8,438.575 336.366,439.572C336.71,440.178 337.153,440.894 338.161,442.695C338.387,443.151 340.884,448.191 340.642,448.551C339.761,449.864 338.467,447.904 338.36,447.742C338.196,447.493 336.683,445.201 336.37,444.589C336.325,444.502 331.527,436.444 327.469,434.63C326.652,434.266 324.935,434.31 323.533,433.413C323.387,433.319 320.816,431.426 320.58,431.252C320.065,430.873 320.032,430.953 319.476,430.648C319.476,430.648 318.642,431.146 318.733,431.516C318.844,431.966 319.948,433.172 320.142,433.348C321.89,434.872 322.312,435.292 322.547,435.453C325.672,437.603 326.255,436.845 328.48,439.515C331.508,443.148 333.694,448.385 333.769,448.54C333.511,450.025 333.623,450.128 333.496,450.11Z" style="fill:rgb(42,99,162);"/>
                </g>
                <g transform="matrix(1.019417,0,0,1.019417,-1.988232,-8.443476)">
                    <path d="M332.796,396.33C332.318,395.324 295.961,336.709 294.925,335.207C292.693,331.72 292.564,330.557 289.624,331.775C285.801,333.358 283.95,331.53 282.102,329.875C279.67,327.105 279.852,326.977 277.97,322.347C276.787,316.901 278.266,316.796 277.751,314.452C277.574,313.647 277.492,313.686 276.88,313.116C276.195,312.479 275.726,312.312 275.639,312.251C271.217,309.974 269.233,308.913 266.265,306.839L265.144,305.963C263.566,304.762 263.56,304.795 262.811,304.141C261.52,302.935 261.557,302.926 260.323,301.666C258.887,300.098 258.933,300.083 257.604,298.427C251.226,289.172 256.199,283.349 263.452,286.598C263.711,286.714 263.96,286.852 264.218,286.968C267.942,289.586 270.146,292.318 271.825,294.195C273.552,296.171 276.387,299.326 279,304.236C281.531,308.793 281.439,308.856 281.81,309.112C282.66,309.701 284.512,309.182 285.536,308.963C288.388,309.404 288.889,309.147 291.653,313.412C293.289,316.842 293.145,316.882 294.119,320.561C294.31,322.538 294.164,322.529 294.273,324.521C294.377,326.405 295.996,327.572 304.357,340.595C307.47,345.445 335.293,387.659 335.302,387.675C335.881,388.615 336.036,388.502 336.51,389.486C336.999,390.5 337.489,391.095 337.709,391.071C337.839,391.057 338.469,389.989 338.442,389.496C338.393,388.588 334.258,379.76 329.228,367.97C324.665,357.272 319.473,346.618 318.231,343.639L319.305,341.547C319.195,341.107 315.95,334.914 315.843,333.361C315.773,332.355 315.803,332.375 315.735,331.384L316.664,332.41C316.859,332.648 319.215,336.382 319.66,337.42C319.872,337.913 319.875,337.921 322.788,343.351C323.392,344.489 330.646,359.158 331.316,360.588C332.239,362.487 332.566,363.191 332.672,363.419C335.784,370.128 335.805,370.113 336.061,370.702C339.602,378.837 340.506,381.427 340.839,382.381C342.449,386.991 343.928,389.334 345.932,396.36C346.662,398.727 347.473,401.128 347.817,402.303C348.167,402.906 348.593,404.031 348.796,404.025C350.319,403.974 349.573,400.779 349.507,400.499C348.816,397.544 346.012,388.684 344.471,382.507C342.943,376.379 341.855,373.83 340.506,366.499C340.061,364.082 340.02,364.098 336.426,350.517C335.603,347.451 333.842,340.354 332.85,337.389C332.527,336.351 332.482,336.375 328.747,324.427C327.665,320.896 325.509,313.507 324.25,309.574C321.497,301.119 321.363,300.93 320.436,300.805C318.979,300.608 317.789,301.279 315.608,299.383C314.532,298.448 312.429,295.081 312.182,294.686C311.271,293.125 311.321,293.115 310.505,291.498C309.677,289.443 309.663,289.472 308.917,287.367C308.014,283.951 307.858,284.01 307.19,280.541C306.035,274.498 306.124,274.074 307.029,270.386C307.506,268.827 307.33,268.164 309.576,265.581C313.23,262.457 315.001,263.143 317.747,265.185C319.607,266.871 320.74,267.745 322.975,272.265L323.221,272.634C324.29,275.098 324.314,275.069 325.277,277.582L325.59,278.466C326.523,280.976 326.479,280.968 327.193,283.568L327.65,285.466C329.102,296.457 325.012,298.009 325.647,301.472C325.813,302.378 327.039,306.187 327.17,306.594C328.784,311.795 336.763,336.332 338.532,342.492C339.045,344.28 342.122,354.119 343.102,357.622C345.529,367.076 351.306,384.517 352.428,389.52C354.767,399.947 354.763,399.955 355.143,400.801C355.256,401.051 355.323,401.319 355.43,401.57C355.776,402.379 356.09,402.49 356.652,401.814C357.792,400.443 357.13,400.26 356.809,398.489C351.408,368.731 352.631,362.004 350.958,340.478C350.876,337.973 350.877,337.993 350.842,335.5C350.855,327.023 351.087,327.05 351.891,314.489C351.588,313.482 351.872,313.356 350.908,312.169C350.8,312.035 350.643,311.842 349.703,310.386C346.463,303.538 346.77,300.555 347.178,297.456C347.837,290.829 347.89,290.848 348.979,286.666L349.449,285.478C350.196,284.006 350.237,283.205 352.851,280.98C355.21,279.695 358.159,277.976 361.188,286.612C361.802,288.362 361.848,289.306 361.876,289.441L362.259,291.552C362.752,294.992 362.856,296.646 362.019,301.409C361.435,304.799 361.348,304.764 360.088,308.326C359.26,309.874 359.441,309.989 358.227,311.254C356.298,313.263 354.941,312.625 354.746,315.511C354.359,321.233 354.261,339.737 355.061,346.546C355.336,348.887 356.03,363.245 357.097,370.564C357.247,371.595 357.09,371.593 358.326,383.525C359.054,390.56 358.498,390.653 359.637,396.411C359.897,396.285 361.299,395.858 361.506,395.501C361.548,395.427 361.349,395.139 361.373,388.494C361.401,380.416 361.47,380.432 362.432,361.494C362.455,361.03 362.943,353.638 363.415,352.429C363.755,351.557 364.598,351.87 364.725,352.123C364.869,352.412 364.891,352.748 365,353.052C365.486,354.415 365.217,354.443 365.173,356.523C364.889,359.073 364.688,362.943 364.659,363.502C364.633,365.996 364.651,365.973 364.715,368.48C364.917,375.012 364.966,374.996 365.355,381.512C365.61,385.504 365.955,390.455 365.901,391.489C365.866,392.153 365.748,392.813 365.739,393.478C365.732,393.963 365.862,394.443 365.855,394.928C361.974,398.363 361.981,398.343 361.657,398.653C357.229,403.717 355.494,408.556 353.726,413.571C352.825,417.113 351.957,420.709 351.373,426.416C350.812,426.385 349.982,427.155 349.403,425.573C348.32,422.606 346.916,420.409 345.834,418.339C344.29,415.361 344.361,415.345 343.3,413.62C340.255,408.334 340,408.514 336.9,403.261C335.764,401.335 335.787,401.335 334.572,399.456C334.418,399.213 333.79,398.227 332.796,396.33Z" style="fill:rgb(210,143,17);"/>
                </g>
                <g transform="matrix(1.019417,0,0,1.019417,-1.988232,-8.443476)">
                    <path d="M533.871,176.245C533.788,175.975 533.516,175.792 533.432,175.523C533.011,174.162 533.875,173.232 535.372,173.805C538.148,174.867 541.733,180.893 542.156,181.604C542.156,181.606 542.513,182.36 541.85,182.994C541.266,183.552 540.602,183.071 538.749,181.198C538.425,180.889 536.46,179.01 534.767,177.253C534.469,176.917 534.17,176.581 533.871,176.245Z" style="fill:rgb(7,37,99);"/>
                </g>
                <g transform="matrix(1.019417,0,0,1.019417,-1.988232,-8.443476)">
                    <path d="M559.807,207.587C560.688,206.325 560.986,205.873 562.152,206.896C562.246,206.978 563.267,208.455 563.361,208.593C564.307,210.017 566.547,213.36 565.309,214.232C564.996,214.453 564.574,214.415 564.509,214.409C564.09,214.371 564.187,214.13 563.759,214.091C562.14,212.3 562.131,212.324 560.729,210.349C560.425,209.717 560.121,209.084 559.817,208.452L559.807,207.587Z" style="fill:rgb(3,30,92);"/>
                </g>
                <g transform="matrix(0.587369,0,0,0.587369,56.483392,-549.895314)">
                    <path d="M900.405,1358.706C896.494,1352.111 897.923,1339.727 906.364,1336.758C914.553,1333.878 920.042,1338.083 923.567,1344.903C927.25,1352.03 926.656,1361.549 920.905,1364.717C911.206,1370.061 904.063,1364.872 900.405,1358.706Z" style="fill:rgb(200,150,14);"/>
                </g>
                <g transform="matrix(0.806221,0,0,0.762374,-125.122057,-742.324398)">
                    <path d="M901.031,1360.03C897.12,1353.435 898.52,1341.732 907.369,1337.959C912.819,1335.636 920.062,1338.481 923.141,1344.948C926.595,1352.202 925.461,1361.851 919.81,1365.214C911.225,1370.322 904.689,1366.196 901.031,1360.03Z" style="fill:rgb(200,150,14);"/>
                </g>
                <g transform="matrix(0.903627,0,0,0.813902,-204.055719,-761.104248)">
                    <path d="M901.031,1360.03C897.12,1353.435 899.215,1341.18 907.369,1337.959C912.869,1335.787 919.763,1337.378 923.042,1344.617C926.361,1351.948 925.183,1361.313 919.81,1365.214C912.297,1370.668 904.689,1366.196 901.031,1360.03Z" style="fill:rgb(200,150,14);"/>
                </g>
            </g>
        </g>
    </g>
</svg>
